<?xml self.version="1.0" encoding="utf-8"?>
<!-- Generator: Adobe Illustrator 17.1.0, SVG Export Plug-In . SVG self.version: 6.00 Build 0)  -->
<svg self.version="1.2" baseProfile="tiny" xmlns="http://www.w3.org/2000/svg" xmlns:xlink="http://www.w3.org/1999/xlink" x="0px"
	 y="0px" width="64px" height="64px" viewBox="0 0 64 64" xml:space="preserve">
<g id="_x36_4px_Boxes">
	<rect fill="none" width="64" height="64"/>
</g>
<g id="Production">
	<g>
		<path d="M32,8C18.7451,8,8,18.7441,8,32c0,13.2559,10.7451,24,24,24c13.2559,0,24-10.7441,24-24C56,18.7441,45.2559,8,32,8z
			 M32,50.0576c-9.957,0-18.0576-8.1006-18.0576-18.0576c0-9.957,8.1006-18.0576,18.0576-18.0576S50.0576,22.043,50.0576,32
			C50.0576,41.957,41.957,50.0576,32,50.0576z"/>
		<path d="M45.0083,31.7598c-0.001,0,0.0361,0,0.0361,0l-10.7075-1.0596L33.5,18.9922c-0.0937-0.8306-0.6729-1.4365-1.5-1.4365
			s-1.4375,0.5381-1.4985,1.4365L29.5,32.7739c0,1.2906,0.9868,2.3516,2.2461,2.48c0.0747,0.0425,13.2622-0.9414,13.2622-0.9414
			c0.8667-0.084,1.5-0.4497,1.5-1.2769C46.5083,32.2095,45.9307,31.8223,45.0083,31.7598z"/>
	</g>
</g>
</svg>
