<svg width="40" height="33" viewBox="0 0 40 33" xmlns="http://www.w3.org/2000/svg"><g fill="#fff" fill-rule="evenodd"><path d="M39.983 22.526c.28-9.014-3.361-16.319-9.993-20.041-5.783-3.248-13.087-3.316-19.07-.181C3.977 5.937 0 13.18 0 22.164v3.42C0 26.369.676 27 1.52 27c.842 0 1.525-.632 1.525-1.415v-3.422c0-7.93 3.414-14.27 9.376-17.395 5.02-2.632 11.152-2.58 15.994.14 3.333 1.87 8.873 6.638 8.519 17.56v.047l.017 3.077c.004.78.687 1.408 1.523 1.408h.007c.846-.003 1.522-.64 1.519-1.422l-.017-3.052z"/><path d="M30.974 17.285c-1.563 0-2.833 1.322-2.833 2.947v9.451c0 1.632 1.267 2.954 2.83 2.954h.003c1.56 0 2.829-1.322 2.829-2.954l.003-9.447c0-1.629-1.273-2.95-2.832-2.95M9.033 17.285c-1.563 0-2.832 1.322-2.832 2.955l.003 9.443c0 1.632 1.266 2.954 2.83 2.954 1.565 0 2.831-1.322 2.831-2.954v-9.447c0-1.629-1.27-2.95-2.832-2.95"/><path d="M5.998 22c-.584 0-1.056.332-1.056.749v4.502c0 .417.472.749 1.056.749.584 0 1.06-.332 1.06-.749V22.75c0-.417-.476-.749-1.06-.749M36.002 22c-.584 0-1.06.332-1.06.749v4.502c0 .417.476.749 1.06.749.584 0 1.056-.332 1.056-.749V22.75c0-.417-.472-.749-1.056-.749"/></g></svg>